<svg width="401" height="150" viewBox="0 0 401 150" fill="none" xmlns="http://www.w3.org/2000/svg">
<path d="M73.5378 53.2579L77.3754 38.8998C77.3754 38.8998 84.6569 38.8904 89.991 38.8904C109.614 38.8904 125.946 54.716 125.946 74.8584C125.946 95.2956 109.461 110.775 89.9762 110.775C77.0497 110.775 48.7606 110.767 43.2383 110.767L47.0803 96.392C54.1253 96.392 83.7631 96.3978 89.9809 96.3978C102.065 96.3978 111.574 86.7209 111.574 74.8513C111.574 62.5109 101.512 53.2613 89.9816 53.2613C85.7274 53.2613 77.5134 53.2579 73.5378 53.2579Z" fill="#02AE9B"/>
<path d="M73.5341 53.2627H58.6426L49.0039 89.2026H63.9009L73.5341 53.2627Z" fill="#02AE9B"/>
<path d="M86.0598 38.899H62.4824L56.3711 61.6453H79.9782L86.0598 38.899Z" fill="#9ADFD7"/>
<path d="M80.0006 61.6453L86.0823 38.899L56.3936 61.6453H80.0006Z" fill="#018B74"/>
<path d="M354.602 97.5094C355.603 97.5094 356.436 97.3612 357.103 97.0648L356.214 103.678C354.732 104.159 353.158 104.4 351.49 104.4C349.342 104.4 347.563 103.974 346.156 103.122C344.785 102.27 343.84 101.085 343.321 99.5656C340.691 102.789 337.171 104.4 332.763 104.4C330.429 104.4 328.28 103.863 326.316 102.789C324.353 101.714 322.778 100.177 321.593 98.1763C320.444 96.1386 319.87 93.7491 319.87 91.0075C319.87 87.7103 320.593 84.7464 322.037 82.116C323.519 79.4486 325.52 77.3739 328.039 75.892C330.558 74.373 333.337 73.6136 336.375 73.6136C340.969 73.6136 344.211 75.114 346.1 78.1149L346.878 74.0581H355.547L351.657 93.4527C351.583 93.7491 351.546 94.1566 351.546 94.6753C351.546 95.6385 351.805 96.3609 352.324 96.8426C352.88 97.2871 353.639 97.5094 354.602 97.5094ZM335.43 97.2316C337.134 97.2316 338.653 96.824 339.987 96.009C341.321 95.1569 342.358 93.9899 343.099 92.508C343.84 91.026 344.211 89.3218 344.211 87.3954C344.211 85.3577 343.599 83.7461 342.377 82.5606C341.191 81.3751 339.524 80.7823 337.375 80.7823C335.671 80.7823 334.152 81.2084 332.818 82.0605C331.485 82.8755 330.447 84.024 329.706 85.5059C328.965 86.9878 328.595 88.692 328.595 90.6185C328.595 92.6561 329.188 94.2677 330.373 95.4533C331.596 96.6388 333.281 97.2316 335.43 97.2316Z" fill="white"/>
<path d="M304.106 73.6136C307.366 73.6136 309.959 74.5027 311.886 76.281C313.812 78.0223 314.775 80.5045 314.775 83.7276C314.775 84.9132 314.646 86.1357 314.386 87.3954L311.108 103.956H302.438L305.606 88.0066C305.754 87.2657 305.828 86.5062 305.828 85.7282C305.828 84.2092 305.421 83.0608 304.606 82.2828C303.828 81.5048 302.661 81.1157 301.105 81.1157C296.918 81.1157 294.306 83.6165 293.269 88.6179L290.213 103.956H281.543L284.711 88.0066C284.859 87.2657 284.933 86.5247 284.933 85.7838C284.933 84.2648 284.526 83.1163 283.711 82.3383C282.933 81.5233 281.766 81.1157 280.21 81.1157C276.023 81.1157 273.393 83.6535 272.319 88.7291L269.318 103.956H260.648L266.595 74.0581H274.819L274.152 77.1702C276.746 74.7991 279.876 73.6136 283.544 73.6136C285.619 73.6136 287.453 74.0396 289.046 74.8917C290.676 75.7068 291.898 76.9108 292.713 78.5039C294.158 76.9108 295.844 75.7068 297.77 74.8917C299.697 74.0396 301.809 73.6136 304.106 73.6136Z" fill="white"/>
<path d="M243.596 104.4C240.521 104.4 237.835 103.845 235.538 102.733C233.241 101.622 231.463 100.066 230.203 98.0651C228.98 96.0275 228.369 93.675 228.369 91.0075C228.369 87.7103 229.147 84.7464 230.703 82.116C232.259 79.4856 234.426 77.411 237.205 75.892C239.984 74.373 243.114 73.6136 246.597 73.6136C249.783 73.6136 252.524 74.2804 254.821 75.6141C257.155 76.9108 258.897 78.7632 260.045 81.1713L252.71 84.8391C251.413 82.1346 249.19 80.7823 246.041 80.7823C244.337 80.7823 242.799 81.2084 241.428 82.0605C240.095 82.8755 239.039 84.024 238.261 85.5059C237.52 86.9878 237.149 88.6735 237.149 90.5629C237.149 92.6006 237.761 94.2307 238.983 95.4533C240.206 96.6388 241.91 97.2316 244.096 97.2316C247.282 97.2316 249.727 95.8978 251.431 93.2304L257.822 97.2316C256.377 99.4915 254.395 101.251 251.876 102.511C249.394 103.77 246.634 104.4 243.596 104.4Z" fill="white"/>
<path d="M207.07 104.4C204.069 104.4 201.42 103.845 199.123 102.733C196.863 101.622 195.103 100.066 193.844 98.0651C192.621 96.0275 192.01 93.675 192.01 91.0075C192.01 87.7103 192.788 84.7464 194.344 82.116C195.9 79.4856 198.049 77.411 200.79 75.892C203.532 74.373 206.625 73.6136 210.071 73.6136C213.109 73.6136 215.757 74.1693 218.017 75.2807C220.277 76.3921 222.019 77.9667 223.241 80.0043C224.501 82.0049 225.131 84.3389 225.131 87.0064C225.131 90.3036 224.353 93.2674 222.797 95.8978C221.278 98.5282 219.129 100.603 216.35 102.122C213.609 103.641 210.515 104.4 207.07 104.4ZM207.625 97.2316C209.293 97.2316 210.793 96.824 212.127 96.009C213.46 95.1569 214.498 93.9899 215.239 92.508C215.98 91.026 216.35 89.3218 216.35 87.3954C216.35 85.3577 215.757 83.7461 214.572 82.5606C213.386 81.3751 211.719 80.7823 209.57 80.7823C207.866 80.7823 206.347 81.2084 205.014 82.0605C203.68 82.8755 202.642 84.024 201.902 85.5059C201.161 86.9878 200.79 88.692 200.79 90.6185C200.79 92.6561 201.383 94.2677 202.568 95.4533C203.791 96.6388 205.477 97.2316 207.625 97.2316Z" fill="white"/>
<path d="M153.879 65.0554H170.161C174.125 65.0554 177.534 65.7223 180.386 67.056C183.276 68.3527 185.48 70.2236 186.999 72.6687C188.555 75.1139 189.333 77.9851 189.333 81.2824C189.333 85.8022 188.315 89.7848 186.277 93.2303C184.239 96.6387 181.387 99.2876 177.719 101.177C174.088 103.029 169.883 103.956 165.104 103.956H146.099L153.879 65.0554ZM165.382 96.5646C168.42 96.5646 171.05 95.9348 173.273 94.6752C175.533 93.3785 177.256 91.6187 178.441 89.3958C179.627 87.1359 180.22 84.5982 180.22 81.7825C180.22 78.8557 179.275 76.5773 177.386 74.9472C175.496 73.28 172.755 72.4465 169.161 72.4465H161.436L156.602 96.5646H165.382Z" fill="white"/>
</svg>
