<svg width="161" height="160" viewBox="0 0 161 160" fill="none" xmlns="http://www.w3.org/2000/svg">
<path d="M65.8372 51.0291L70.9904 31.7488C70.9904 31.7488 80.7682 31.7362 87.9309 31.7362C114.281 31.7362 136.212 52.9871 136.212 80.0348C136.212 107.478 114.076 128.264 87.911 128.264C70.5531 128.264 32.5659 128.253 25.1504 128.253L30.3095 108.951C39.7697 108.951 79.568 108.958 87.9173 108.958C104.144 108.958 116.913 95.964 116.913 80.0252C116.913 63.4543 103.401 51.0337 87.9184 51.0337C82.2056 51.0337 71.1758 51.0291 65.8372 51.0291Z" fill="#02AE9B"/>
<path d="M65.8274 51.0355H45.8306L32.8876 99.2963H52.8916L65.8274 51.0355Z" fill="#02AE9B"/>
<path d="M84.3871 31.7476H51.0401L42.3965 63.9193H75.7855L84.3871 31.7476Z" fill="#02AE9B"/>
<path d="M84.3871 31.7476H51.0401L42.3965 63.9193H75.7855L84.3871 31.7476Z" fill="white" fill-opacity="0.5"/>
<path d="M75.7855 63.9193L84.3871 31.7476L42.3965 63.9193H75.7855Z" fill="#00775E"/>
</svg>
